<svg width="2633" height="2167" viewBox="0 0 2633 2167" fill="none" xmlns="http://www.w3.org/2000/svg">
<g filter="url(#filter0_d_209_12)">
<path d="M50 50H2482V1650C2482 1760.46 2392.46 1850 2282 1850H50V50Z" fill="white"/>
<rect x="50" y="50" width="2432" height="120" fill="#171321"/>
<rect x="172" y="641" width="840" height="120" rx="10" fill="#171321"/>
<rect x="172" y="511" width="840" height="80" rx="40" fill="#1976D2"/>
<rect x="172" y="811" width="680" height="120" rx="10" fill="#171321"/>
<rect x="172" y="981" width="450" height="120" rx="10" fill="#171321"/>
<rect x="100" y="74" width="72" height="72" rx="12" fill="#FAFAFA"/>
<path d="M123.365 130H117.801V92.664H123.365V130ZM158.033 97.292H146.177V130H140.665V97.292H128.757V92.664H158.033V97.292Z" fill="black"/>
<path d="M109 86C109 83.7909 110.791 82 113 82C115.209 82 117 83.7909 117 86C117 88.2091 115.209 90 113 90C110.791 90 109 88.2091 109 86Z" fill="black"/>
<mask id="mask0_209_12" style="mask-type:alpha" maskUnits="userSpaceOnUse" x="100" y="74" width="72" height="72">
<rect x="100" y="74" width="72" height="72" rx="12" fill="#FAFAFA"/>
</mask>
<g mask="url(#mask0_209_12)">
<path d="M89 146.285C111 132.685 116.167 144.285 116 151.785" stroke="#2196F3" stroke-width="18"/>
</g>
<rect x="2360" y="74" width="72" height="72" rx="20" fill="white"/>
<rect x="2268" y="74" width="72" height="72" rx="20" fill="white"/>
<rect x="2004" y="74" width="240" height="72" rx="10" fill="white"/>
<rect x="1255" y="1300.6" width="683" height="786" transform="rotate(-10 1255 1300.6)" fill="#DF85FF" fill-opacity="0.73"/>
<rect x="1514.95" y="943.193" width="772" height="815" transform="rotate(-5 1514.95 943.193)" fill="#43CDEB" fill-opacity="0.73"/>
<rect x="1811" y="813" width="772" height="815" fill="#171321"/>
<rect x="1391" y="1041.28" width="772" height="815" transform="rotate(-5 1391 1041.28)" fill="#43CDEB"/>
<rect x="1172.92" y="1385.67" width="703" height="742" transform="rotate(-10 1172.92 1385.67)" fill="#DF85FF"/>
<g filter="url(#filter1_b_209_12)">
<path d="M1264 170H2480V1650C2480 1760.46 2390.46 1850 2280 1850H1264V170Z" fill="#E6E2F2" fill-opacity="0.8"/>
</g>
<rect x="1334" y="630" width="320" height="320" rx="20" fill="#7B5EC3"/>
<rect x="1714" y="240" width="320" height="320" rx="20" fill="#7B5EC3"/>
<rect x="2094" y="240" width="320" height="320" rx="20" fill="#7B5EC3"/>
<rect x="1334" y="240" width="320" height="320" rx="20" fill="#7B5EC3"/>
<rect x="1334" y="240" width="320" height="320" rx="20" fill="#7B5EC3"/>
<rect x="1334" y="1660" width="934" height="120" rx="20" fill="white"/>
</g>
<defs>
<filter id="filter0_d_209_12" x="0" y="0" width="2633" height="2166.4" filterUnits="userSpaceOnUse" color-interpolation-filters="sRGB">
<feFlood flood-opacity="0" result="BackgroundImageFix"/>
<feColorMatrix in="SourceAlpha" type="matrix" values="0 0 0 0 0 0 0 0 0 0 0 0 0 0 0 0 0 0 127 0" result="hardAlpha"/>
<feOffset/>
<feGaussianBlur stdDeviation="25"/>
<feComposite in2="hardAlpha" operator="out"/>
<feColorMatrix type="matrix" values="0 0 0 0 0 0 0 0 0 0 0 0 0 0 0 0 0 0 0.25 0"/>
<feBlend mode="normal" in2="BackgroundImageFix" result="effect1_dropShadow_209_12"/>
<feBlend mode="normal" in="SourceGraphic" in2="effect1_dropShadow_209_12" result="shape"/>
</filter>
<filter id="filter1_b_209_12" x="1254" y="160" width="1236" height="1700" filterUnits="userSpaceOnUse" color-interpolation-filters="sRGB">
<feFlood flood-opacity="0" result="BackgroundImageFix"/>
<feGaussianBlur in="BackgroundImage" stdDeviation="5"/>
<feComposite in2="SourceAlpha" operator="in" result="effect1_backgroundBlur_209_12"/>
<feBlend mode="normal" in="SourceGraphic" in2="effect1_backgroundBlur_209_12" result="shape"/>
</filter>
</defs>
</svg>
