<svg width="25" height="37" viewBox="0 0 25 37" fill="none" xmlns="http://www.w3.org/2000/svg">
<path d="M2.89392 6.97584C2.97367 7.06349 3.0702 7.13418 3.17778 7.18372C3.28536 7.23327 3.40178 7.26065 3.52014 7.26424C3.6385 7.26784 3.75637 7.24757 3.86675 7.20464C3.97712 7.16171 4.07776 7.09701 4.16266 7.01436C4.24757 6.93172 4.31501 6.83283 4.36099 6.72357C4.40697 6.61431 4.43054 6.4969 4.4303 6.37834C4.43006 6.25978 4.40602 6.14247 4.3596 6.0334C4.31319 5.92432 4.24534 5.8257 4.16011 5.7434L2.98226 4.51685H9.46043C9.69472 4.51685 9.91941 4.42366 10.0851 4.25778C10.2507 4.0919 10.3438 3.86692 10.3438 3.63232C10.3438 3.39773 10.2507 3.17275 10.0851 3.00687C9.91941 2.84099 9.69472 2.7478 9.46043 2.7478H2.98226L4.16011 1.52125C4.24534 1.43895 4.31319 1.34033 4.3596 1.23125C4.40602 1.12218 4.43006 1.00487 4.4303 0.886309C4.43054 0.767745 4.40697 0.650342 4.36099 0.541081C4.31501 0.431819 4.24757 0.332929 4.16266 0.250286C4.07776 0.167643 3.97712 0.102935 3.86675 0.0600084C3.75637 0.017082 3.6385 -0.00318699 3.52014 0.000406346C3.40178 0.00399968 3.28536 0.0313827 3.17778 0.0809262C3.0702 0.13047 2.97367 0.201163 2.89392 0.288805L0.249649 3.01315C0.0895513 3.17823 0 3.39927 0 3.62938C0 3.85948 0.0895513 4.08052 0.249649 4.2456L2.89392 6.97584Z" fill="#191919"/>
<path d="M24.7432 18.2219C24.5987 17.8774 24.3874 17.565 24.1216 17.3028C23.8557 17.0407 23.5405 16.8339 23.1943 16.6946L23.0824 16.6651C22.7309 16.5228 22.3544 16.4526 21.9752 16.4587C22.1056 16.0331 22.134 15.5827 22.0583 15.144C21.9826 14.7053 21.8048 14.2907 21.5393 13.9336C21.2738 13.5764 20.9281 13.2869 20.5301 13.0884C20.1322 12.8899 19.6931 12.788 19.2485 12.7909L21.7279 6.64043C22.0086 5.94415 22.0033 5.16506 21.7132 4.47265C21.4232 3.78024 20.8718 3.23052 20.179 2.9431C19.6141 2.70959 18.9885 2.66733 18.3974 2.82275C17.8062 2.97817 17.282 3.32276 16.9046 3.80404C16.582 3.45024 16.175 3.18421 15.7217 3.03089C15.2684 2.87756 14.7836 2.84195 14.3128 2.92739C13.842 3.01283 13.4006 3.21653 13.0299 3.51941C12.6591 3.82228 12.3713 4.21442 12.1932 4.65909L8.22973 14.4125L8.18851 14.1943C8.1902 14.1609 8.1902 14.1275 8.18851 14.0941C8.07347 13.7351 7.88712 13.4032 7.64067 13.1183C7.39421 12.8334 7.09274 12.6013 6.7544 12.436C6.41605 12.2708 6.04782 12.1757 5.67184 12.1567C5.29587 12.1376 4.91993 12.1948 4.56662 12.325C3.90635 12.5616 3.35864 13.0375 3.03156 13.6586C2.70449 14.2798 2.62182 15.0011 2.79985 15.6803L4.96709 27.1202L3.44767 30.8883C3.39985 30.9976 3.3746 31.1154 3.37343 31.2347C3.37226 31.3539 3.39519 31.4722 3.44086 31.5824C3.48652 31.6926 3.55396 31.7924 3.63914 31.8758C3.72431 31.9592 3.82545 32.0244 3.93648 32.0677L14.7668 36.4491C14.8759 36.4969 14.9936 36.5222 15.1127 36.5234C15.2318 36.5246 15.3499 36.5016 15.46 36.4559C15.57 36.4102 15.6697 36.3426 15.753 36.2573C15.8362 36.1721 15.9015 36.0708 15.9446 35.9596L17.4582 32.2092L20.7208 30.1217C20.8746 30.0228 20.9939 29.8786 21.0624 29.7089L24.7962 20.4568C24.9394 20.1002 25.0085 19.7181 24.9994 19.3339C24.9903 18.9496 24.9031 18.5713 24.7432 18.2219ZM23.1236 19.7374L19.4959 28.7301L16.2391 30.8176C16.0853 30.9165 15.966 31.0607 15.8975 31.2303L14.6078 34.4205L5.41468 30.7055L6.69853 27.5153C6.76158 27.3582 6.77793 27.1862 6.74564 27.02L4.53129 15.2852C4.53129 15.2852 4.53129 15.2322 4.53129 15.2086C4.46041 14.9583 4.48656 14.6904 4.6045 14.4586C4.72243 14.2268 4.92346 14.0482 5.16733 13.9584C5.4197 13.8642 5.699 13.8732 5.94478 13.9835C6.19056 14.0939 6.38306 14.2967 6.48063 14.5481L7.06955 17.6735C7.09506 17.8662 7.18331 18.0452 7.32064 18.1827C7.45797 18.3202 7.63673 18.4086 7.82927 18.4341C8.02398 18.4483 8.21798 18.3984 8.38171 18.2919C8.54545 18.1855 8.66994 18.0283 8.73621 17.8445L13.7951 5.31364C13.9021 5.04777 14.1102 4.83534 14.3736 4.7231C14.637 4.61085 14.9341 4.60798 15.1997 4.71511C15.4652 4.82224 15.6773 5.0306 15.7894 5.29435C15.9015 5.5581 15.9044 5.85564 15.7974 6.12151L15.0907 7.89056L11.781 16.1049C11.7316 16.2136 11.7047 16.3312 11.702 16.4506C11.6992 16.5699 11.7206 16.6887 11.7649 16.7995C11.8092 16.9104 11.8755 17.0111 11.9597 17.0957C12.0439 17.1802 12.1444 17.2468 12.255 17.2914C12.3656 17.3361 12.4841 17.3578 12.6034 17.3553C12.7226 17.3529 12.8401 17.3262 12.9488 17.2771C13.0575 17.2279 13.1551 17.1572 13.2358 17.0693C13.3164 16.9813 13.3785 16.8779 13.4182 16.7653L17.4346 6.80554L18.0883 5.1898C18.1967 4.92885 18.403 4.7209 18.6629 4.61063C18.9228 4.50037 19.2156 4.49659 19.4782 4.60012C19.7417 4.70861 19.9516 4.91715 20.0619 5.18015C20.1723 5.44314 20.1742 5.7392 20.0671 6.00357L15.4264 17.5673C15.3518 17.7627 15.3488 17.9782 15.4178 18.1756C15.4869 18.373 15.6236 18.5395 15.8037 18.6456C15.9837 18.7516 16.1955 18.7903 16.4013 18.7549C16.6072 18.7194 16.7938 18.612 16.9281 18.4518C16.9817 18.3858 17.0254 18.3123 17.0577 18.2337L18.2768 15.2145C18.3863 14.9502 18.5957 14.74 18.8593 14.6295C19.1229 14.5191 19.4195 14.5174 19.6843 14.6248C19.9478 14.7333 20.1577 14.9418 20.268 15.2048C20.3784 15.4678 20.3803 15.7639 20.2732 16.0282L18.5536 20.2858C18.5042 20.3945 18.4774 20.5121 18.4746 20.6314C18.4719 20.7508 18.4933 20.8695 18.5376 20.9804C18.5819 21.0913 18.6481 21.192 18.7323 21.2765C18.8166 21.3611 18.917 21.4277 19.0276 21.4723C19.1383 21.5169 19.2568 21.5387 19.376 21.5362C19.4952 21.5337 19.6127 21.5071 19.7214 21.458C19.8301 21.4088 19.9277 21.3381 20.0084 21.2502C20.0891 21.1622 20.1511 21.0588 20.1908 20.9462L20.5677 20.0145V19.9791L21.0094 18.8823C21.119 18.6195 21.3274 18.4104 21.5896 18.3C21.8518 18.1897 22.1469 18.1871 22.411 18.2926L22.5053 18.3339C22.7688 18.4424 22.9786 18.6509 23.089 18.9139C23.1994 19.1769 23.2012 19.473 23.0942 19.7374H23.1236Z" fill="#191919"/>
</svg>
